<svg xmlns="http://www.w3.org/2000/svg" width="64" height="64" viewBox="0 0 64 64" preserveAspectRatio="xMidYMid">
  <rect width="64" height="64" rx="10" ry="10" fill="#5C8425"/>
  <circle cx="22" cy="32" r="10" fill="none" stroke="#ffffff" stroke-width="3.5"/>
  <path d="M44 21.5c-2 0-3.5 1-3.5 2.7 0 1.5 1.2 2.1 3.2 2.6l1.4.3c2.6.5 4.4 1.4 4.4 3.8 0 2.8-2.4 4.1-5.4 4.1-2.3 0-4.5-.9-5.4-2.8" fill="none" stroke="#ffffff" stroke-width="3.5" stroke-linecap="round"/>
  <line x1="43.5" y1="18" x2="43.5" y2="38" stroke="#ffffff" stroke-width="3.5" stroke-linecap="round"/>
  <rect x="10" y="46" width="14" height="2.5" rx="1" fill="#ffffff" opacity="0.65"/>
  <rect x="26" y="46" width="10" height="2.5" rx="1" fill="#ffffff" opacity="0.65"/>
  <rect x="38" y="46" width="16" height="2.5" rx="1" fill="#ffffff" opacity="0.65"/>
</svg>
